<?xml version="1.0" encoding="utf-8"?>
<svg width="500" height="300" viewBox="0 0 500 300" fill="none" xmlns="http://www.w3.org/2000/svg">
  <g>
    <path d="M480 0C491.047 0 500 8.9528 500 20L500 280C500 291.047 491.047 300 480 300L20 300C8.9528 300 0 291.047 0 280L0 20C0 8.9528 8.9528 0 20 0L480 0Z" fill="#004B6E" />
    <path d="M430 0C441.047 0 450 8.9528 450 20L450 250C450 261.047 441.047 270 430 270L20 270C8.9528 270 0 261.047 0 250L0 20C0 8.9528 8.9528 0 20 0L430 0Z" fill="#00648E" transform="translate(25 15)" />
    <path d="M425 0C436.047 0 445 8.9528 445 20L445 247C445 258.047 436.047 267 425 267L20 267C8.9528 267 0 258.047 0 247L0 20C0 8.9528 8.9528 0 20 0L425 0Z" fill="#041F2B" transform="translate(27 16)" />
    <path d="M420 0C431.047 0 440 8.9528 440 20L440 244C440 255.047 431.047 264 420 264L20 264C8.9528 264 0 255.047 0 244L0 20C0 8.9528 8.9528 0 20 0L420 0Z" fill="#00648E" transform="translate(30 18)" />
  </g>
</svg>