<?xml version="1.0" encoding="utf-8"?>
<svg width="149" height="33" viewBox="0 0 149 33" fill="none" xmlns="http://www.w3.org/2000/svg">
  <g>
    <path d="M0 0C0 0 149 0 149 0C149 0 133.25 10.75 128 19C127.982 19.029 127.963 19.0579 127.945 19.0869C123.235 26.5022 113.139 33 104.355 33L0 33L0 0Z" fill="#00648E" fill-rule="evenodd" />
    <path d="M1.05682 11.625L1.05682 2.89773L4.00568 2.89773Q5.03267 2.89773 5.68679 3.26633Q6.34091 3.63494 6.65625 4.26136Q6.97159 4.88778 6.97159 5.65909Q6.97159 6.4304 6.65838 7.06108Q6.34517 7.69176 5.69318 8.06463Q5.04119 8.4375 4.02273 8.4375L2.11364 8.4375L2.11364 11.625L1.05682 11.625ZM2.11364 7.5L3.98864 7.5Q5.04119 7.5 5.48651 6.97159Q5.93182 6.44318 5.93182 5.65909Q5.93182 4.87074 5.48438 4.35298Q5.03693 3.83523 3.97159 3.83523L2.11364 3.83523L2.11364 7.5ZM11.2159 11.7614Q10.2699 11.7614 9.58594 11.3416Q8.90199 10.9219 8.53338 10.1655Q8.16477 9.40909 8.16477 8.40341Q8.16477 7.39773 8.53338 6.62855Q8.90199 5.85938 9.56463 5.42685Q10.2273 4.99432 11.1136 4.99432Q11.625 4.99432 12.1236 5.16477Q12.6222 5.33523 13.0313 5.71662Q13.4403 6.09801 13.6832 6.72443Q13.9261 7.35085 13.9261 8.26705L13.9261 8.69318L9.17472 8.69318Q9.20881 9.74148 9.76918 10.2997Q10.3295 10.858 11.2159 10.858Q11.8082 10.858 12.2344 10.6023Q12.6605 10.3466 12.8523 9.83523L13.8239 10.108Q13.5937 10.8494 12.9034 11.3054Q12.2131 11.7614 11.2159 11.7614ZM9.17472 7.82386L12.9034 7.82386Q12.9034 6.9929 12.4176 6.44531Q11.9318 5.89773 11.1136 5.89773Q10.5384 5.89773 10.1165 6.16619Q9.6946 6.43466 9.4517 6.87571Q9.20881 7.31676 9.17472 7.82386ZM16.4659 10.142L19.6193 5.07955L20.7784 5.07955L20.7784 11.625L19.7727 11.625L19.7727 6.5625L16.6364 11.625L15.4602 11.625L15.4602 5.07955L16.4659 5.07955L16.4659 10.142ZM18.9545 2.89773L19.892 2.89773Q19.892 3.58807 19.4148 4.02699Q18.9375 4.46591 18.1193 4.46591Q17.3139 4.46591 16.8388 4.02699Q16.3636 3.58807 16.3636 2.89773L17.3011 2.89773Q17.3011 3.23011 17.4865 3.48153Q17.6719 3.73295 18.1193 3.73295Q18.5668 3.73295 18.7607 3.48153Q18.9545 3.23011 18.9545 2.89773ZM21.733 6.01705L21.733 5.07955L27.0511 5.07955L27.0511 6.01705L24.9034 6.01705L24.9034 11.625L23.8977 11.625L23.8977 6.01705L21.733 6.01705ZM29.5227 10.142L32.6761 5.07955L33.8352 5.07955L33.8352 11.625L32.8295 11.625L32.8295 6.5625L29.6932 11.625L28.517 11.625L28.517 5.07955L29.5227 5.07955L29.5227 10.142ZM36.6818 5.07955L36.6818 7.89205L39.8182 7.89205L39.8182 5.07955L40.8239 5.07955L40.8239 11.625L39.8182 11.625L39.8182 8.82955L36.6818 8.82955L36.6818 11.625L35.6761 11.625L35.6761 5.07955L36.6818 5.07955ZM46.7045 5.07955L46.7045 6.01705L43.6705 6.01705L43.6705 11.625L42.6648 11.625L42.6648 5.07955L46.7045 5.07955Z" fill="#FFFFFF" transform="translate(32 4)" />
    <path d="M5 0L10 10L0 10L5 0Z" fill="#FFECB3" fill-rule="evenodd" transform="translate(51 21)" />
  </g>
</svg>