<?xml version="1.0" encoding="utf-8"?>
<svg width="107" height="32" viewBox="0 0 107 32" fill="none" xmlns="http://www.w3.org/2000/svg">
  <defs>
    <clipPath id="clip_path_1">
      <rect width="80" height="24" />
    </clipPath>
  </defs>
  <g>
    <g>
      <g fill="#004B6E">
        <path d="M91 0C99.8378 0 107 7.16224 107 16L107 16C107 24.8378 99.8378 32 91 32L16 32C7.16224 32 0 24.8378 0 16L0 16C0 7.16224 7.16224 0 16 0L91 0Z" />
        <path d="M107 16C107 7.16224 99.8378 0 91 0L16 0C7.16224 0 0 7.16224 0 16C0 24.8378 7.16224 32 16 32L91 32C99.8378 32 107 24.8378 107 16ZM16 2L91 2Q96.7999 2 100.9 6.10005Q105 10.2001 105 16Q105 21.7999 100.9 25.8999Q96.7999 30 91 30L16 30Q10.2001 30 6.10005 25.8999Q2 21.7999 2 16Q2 10.2001 6.10005 6.10005Q10.2001 2 16 2Z" fill="#259FD8" fill-rule="evenodd" />
      </g>
      <g clip-path="url(#clip_path_1)" transform="translate(13.5 5.108)">
        <path d="M1.13778 8.80824L1.13778 8.06676L1.54688 8.06676Q1.90163 8.06676 2.09339 7.86701Q2.28516 7.66726 2.39063 7.42756L2.4929 7.18466L0.230114 2.1733L1.08665 2.1733L2.8892 6.23864L4.53835 2.1733L5.3821 2.1733L3.11932 7.65767Q2.98509 7.96449 2.8141 8.22656Q2.64311 8.48864 2.35067 8.64844Q2.05824 8.80824 1.55966 8.80824L1.13778 8.80824ZM5.77841 10.125L5.77841 8.01563L6.1875 8.01563Q6.38565 7.80788 6.51669 7.54581Q6.64773 7.28374 6.73402 6.86186Q6.82031 6.43999 6.87784 5.75284L7.04403 3.80966L10.1634 3.80966L10.1634 8.01563L10.9176 8.01563L10.9176 10.125L10.1634 10.125L10.1634 8.71875L6.53267 8.71875L6.53267 10.125L5.77841 10.125ZM7.04403 8.01563L9.40909 8.01563L9.40909 4.51278L7.74716 4.51278L7.61932 5.75284Q7.53942 6.52308 7.42116 7.09837Q7.30291 7.67365 7.04403 8.01563ZM13.3594 8.83381Q12.8928 8.83381 12.5124 8.65643Q12.1321 8.47905 11.9084 8.14187Q11.6847 7.80469 11.6847 7.32528Q11.6847 6.90341 11.8509 6.63974Q12.017 6.37607 12.2951 6.22585Q12.5732 6.07564 12.9103 6.00053Q13.2475 5.92543 13.5895 5.88068Q14.0369 5.82315 14.3166 5.79279Q14.5962 5.76243 14.7257 5.68892Q14.8551 5.61541 14.8551 5.43324L14.8551 5.40767Q14.8551 4.93466 14.5978 4.67259Q14.3406 4.41051 13.8196 4.41051Q13.2795 4.41051 12.9727 4.64702Q12.6658 4.88352 12.5412 5.15199L11.8253 4.89631Q12.017 4.44886 12.3382 4.19798Q12.6594 3.94709 13.0414 3.84641Q13.4233 3.74574 13.794 3.74574Q14.0305 3.74574 14.339 3.80167Q14.6474 3.8576 14.9366 4.03018Q15.2259 4.20277 15.4176 4.55114Q15.6094 4.8995 15.6094 5.48438L15.6094 8.71875L14.8551 8.71875L14.8551 8.05398L14.8168 8.05398Q14.7401 8.21378 14.5611 8.39595Q14.3821 8.57813 14.0849 8.70597Q13.7876 8.83381 13.3594 8.83381ZM13.4744 8.15625Q13.9219 8.15625 14.2303 7.98047Q14.5387 7.80469 14.6969 7.52663Q14.8551 7.24858 14.8551 6.94176L14.8551 6.25142Q14.8072 6.30895 14.6458 6.35529Q14.4844 6.40163 14.275 6.43519Q14.0657 6.46875 13.8691 6.49272Q13.6726 6.51669 13.5511 6.53267Q13.2571 6.57102 13.003 6.65572Q12.7489 6.74041 12.5939 6.9082Q12.4389 7.07599 12.4389 7.36364Q12.4389 7.75675 12.7314 7.9565Q13.0238 8.15625 13.4744 8.15625ZM16.5554 8.71875L16.5554 8.01563L16.7344 8.01563Q17.0284 8.01563 17.1946 7.85103Q17.3608 7.68643 17.4407 7.24698Q17.5206 6.80753 17.5526 5.98295L17.642 3.80966L20.9148 3.80966L20.9148 8.71875L20.1605 8.71875L20.1605 4.51278L18.358 4.51278L18.2813 6.2642Q18.2461 7.0696 18.1087 7.61612Q17.9712 8.16264 17.6628 8.4407C17.4572 8.62607 17.1733 8.71875 16.8111 8.71875L16.5554 8.71875ZM23.0497 7.60653L25.4148 3.80966L26.2841 3.80966L26.2841 8.71875L25.5298 8.71875L25.5298 4.92188L23.1776 8.71875L22.2955 8.71875L22.2955 3.80966L23.0497 3.80966L23.0497 7.60653ZM27 4.51278L27 3.80966L30.9886 3.80966L30.9886 4.51278L29.3778 4.51278L29.3778 8.71875L28.6236 8.71875L28.6236 4.51278L27 4.51278ZM32.8423 5.58665L34.1463 5.58665Q35.0092 5.58665 35.4663 6.0245Q35.9233 6.46236 35.9233 7.13352Q35.9233 7.57457 35.7188 7.93413Q35.5142 8.29368 35.1179 8.50621Q34.7216 8.71875 34.1463 8.71875L32.0881 8.71875L32.0881 3.80966L32.8423 3.80966L32.8423 5.58665ZM32.8423 6.28977L32.8423 8.01563L34.1463 8.01563Q34.5938 8.01563 34.8814 7.77912Q35.169 7.54261 35.169 7.17188Q35.169 6.78196 34.8814 6.53587Q34.5938 6.28977 34.1463 6.28977L32.8423 6.28977ZM41.8935 2.1733L41.8935 8.71875L41.1009 8.71875L41.1009 3.00426L41.0625 3.00426L39.4645 4.06534L39.4645 3.25994L41.1009 2.1733L41.8935 2.1733ZM45.9077 8.80824Q44.8242 8.80824 44.2282 7.92933Q43.6321 7.05043 43.6321 5.44602Q43.6321 3.8544 44.233 2.96911Q44.8338 2.08381 45.9077 2.08381Q46.9815 2.08381 47.5824 2.96911Q48.1832 3.8544 48.1832 5.44602Q48.1832 7.05043 47.5872 7.92933Q46.9911 8.80824 45.9077 8.80824ZM45.9077 8.10511Q46.6236 8.10511 47.0199 7.41477Q47.4162 6.72443 47.4162 5.44602Q47.4162 4.17081 47.0167 3.47248Q46.6172 2.77415 45.9077 2.77415Q45.1982 2.77415 44.7986 3.47248Q44.3991 4.17081 44.3991 5.44602Q44.3991 6.72443 44.7971 7.41477Q45.195 8.10511 45.9077 8.10511ZM51.9418 3.80966L52.696 3.80966L52.696 8.01563L54.5497 8.01563L54.5497 3.80966L55.304 3.80966L55.304 8.01563L57.1577 8.01563L57.1577 3.80966L57.9119 3.80966L57.9119 8.71875L51.9418 8.71875L51.9418 3.80966ZM60.7372 8.83381Q60.2706 8.83381 59.8903 8.65643Q59.5099 8.47905 59.2862 8.14187Q59.0625 7.80469 59.0625 7.32528Q59.0625 6.90341 59.2287 6.63974Q59.3949 6.37607 59.6729 6.22585Q59.951 6.07564 60.2882 6.00053Q60.6254 5.92543 60.9673 5.88068Q61.4148 5.82315 61.6944 5.79279Q61.9741 5.76243 62.1035 5.68892Q62.233 5.61541 62.233 5.43324L62.233 5.40767Q62.233 4.93466 61.9757 4.67259Q61.7184 4.41051 61.1974 4.41051Q60.6573 4.41051 60.3505 4.64702Q60.0437 4.88352 59.919 5.15199L59.2031 4.89631Q59.3949 4.44886 59.7161 4.19798Q60.0373 3.94709 60.4192 3.84641Q60.8011 3.74574 61.1719 3.74574Q61.4084 3.74574 61.7168 3.80167Q62.0252 3.8576 62.3145 4.03018Q62.6037 4.20277 62.7955 4.55114Q62.9872 4.8995 62.9872 5.48438L62.9872 8.71875L62.233 8.71875L62.233 8.05398L62.1946 8.05398Q62.1179 8.21378 61.9389 8.39595Q61.7599 8.57813 61.4627 8.70597Q61.1655 8.83381 60.7372 8.83381ZM60.8523 8.15625Q61.2997 8.15625 61.6081 7.98047Q61.9165 7.80469 62.0747 7.52663Q62.233 7.24858 62.233 6.94176L62.233 6.25142Q62.185 6.30895 62.0236 6.35529Q61.8622 6.40163 61.6529 6.43519Q61.4435 6.46875 61.247 6.49272Q61.0504 6.51669 60.929 6.53267Q60.6349 6.57102 60.3809 6.65572Q60.1268 6.74041 59.9718 6.9082Q59.8168 7.07599 59.8168 7.36364Q59.8168 7.75675 60.1092 7.9565Q60.4016 8.15625 60.8523 8.15625ZM64.3679 10.5597L64.3679 3.80966L65.0966 3.80966L65.0966 4.58949L65.1861 4.58949Q65.2692 4.46165 65.4178 4.2619Q65.5664 4.06214 65.8461 3.90394Q66.1257 3.74574 66.6051 3.74574Q67.2251 3.74574 67.6982 4.05575Q68.1712 4.36577 68.4364 4.93466Q68.7017 5.50355 68.7017 6.27699Q68.7017 7.05682 68.4364 7.62731Q68.1712 8.1978 67.7013 8.50941Q67.2315 8.82102 66.6179 8.82102Q66.1449 8.82102 65.8604 8.66282Q65.576 8.50462 65.4226 8.30167Q65.2692 8.09872 65.1861 7.96449L65.1222 7.96449L65.1222 10.5597L64.3679 10.5597ZM65.1094 6.2642Q65.1094 7.09837 65.4721 7.62092Q65.8349 8.14347 66.5156 8.14347Q66.9886 8.14347 67.3066 7.89258Q67.6246 7.64169 67.786 7.21502Q67.9474 6.78835 67.9474 6.2642Q67.9474 5.74645 67.7892 5.32937Q67.631 4.91229 67.313 4.66779Q66.995 4.4233 66.5156 4.4233Q65.8253 4.4233 65.4673 4.93146Q65.1094 5.43963 65.1094 6.2642ZM71.8466 8.82102Q71.1818 8.82102 70.6816 8.50462Q70.1815 8.18821 69.9018 7.61932Q69.6222 7.05043 69.6222 6.28977Q69.6222 5.52273 69.9018 4.95064Q70.1815 4.37855 70.6816 4.06214Q71.1818 3.74574 71.8466 3.74574Q72.5114 3.74574 73.0115 4.06214Q73.5117 4.37855 73.7914 4.95064Q74.071 5.52273 74.071 6.28977Q74.071 7.05043 73.7914 7.61932Q73.5117 8.18821 73.0115 8.50462Q72.5114 8.82102 71.8466 8.82102ZM71.8466 8.14347Q72.3516 8.14347 72.6776 7.88459Q73.0035 7.62571 73.1601 7.20384Q73.3168 6.78196 73.3168 6.28977Q73.3168 5.79759 73.1601 5.37251Q73.0035 4.94744 72.6776 4.68537Q72.3516 4.4233 71.8466 4.4233Q71.3416 4.4233 71.0156 4.68537Q70.6896 4.94744 70.533 5.37251Q70.3764 5.79759 70.3764 6.28977Q70.3764 6.78196 70.533 7.20384Q70.6896 7.62571 71.0156 7.88459Q71.3416 8.14347 71.8466 8.14347ZM75.2216 8.71875L75.2216 3.80966L77.2287 3.80966Q78.0213 3.80966 78.4879 4.16761Q78.9545 4.52557 78.9545 5.11364Q78.9545 5.56108 78.6893 5.80558Q78.424 6.05007 78.0085 6.13636Q78.2802 6.17472 78.5375 6.32813Q78.7947 6.48153 78.9641 6.7484Q79.1335 7.01527 79.1335 7.40199Q79.1335 7.96768 78.7084 8.34322Q78.2834 8.71875 77.5355 8.71875L75.2216 8.71875ZM75.9375 8.02841L77.5355 8.02841Q77.9254 8.02841 78.1459 7.84304Q78.3665 7.65767 78.3665 7.33807Q78.3665 6.95774 78.1459 6.73881Q77.9254 6.51989 77.5355 6.51989L75.9375 6.51989L75.9375 8.02841ZM75.9375 5.8679L77.2287 5.8679Q77.6825 5.8679 77.9414 5.68093Q78.2003 5.49396 78.2003 5.16477Q78.2003 4.85476 77.9414 4.67738Q77.6825 4.5 77.2287 4.5L75.9375 4.5L75.9375 5.8679Z" transform="translate(0.21 0)" fill="#FFFFFF" />
        <path d="M0.383523 7.46591L1.18892 7.46591Q1.21449 7.7983 1.49094 7.97088Q1.7674 8.14347 2.21165 8.14347Q2.66548 8.14347 2.98828 7.9565Q3.31108 7.76953 3.31108 7.35085Q3.31108 6.98331 3.04421 6.75799Q2.77734 6.53267 2.3267 6.53267L1.48295 6.53267L1.48295 5.85511L2.3267 5.85511Q2.77734 5.85511 2.99308 5.65057Q3.20881 5.44602 3.20881 5.1392Q3.20881 4.81001 2.9755 4.61026Q2.74219 4.41051 2.31392 4.41051Q1.88246 4.41051 1.59482 4.60387Q1.30717 4.79723 1.29119 5.10085L0.49858 5.10085Q0.511364 4.70455 0.741477 4.39933Q0.971591 4.09411 1.3679 3.91992Q1.7642 3.74574 2.27557 3.74574Q2.79332 3.74574 3.17525 3.92631Q3.55717 4.10689 3.76651 4.41531Q3.97585 4.72372 3.97585 5.11364Q3.97585 5.52912 3.74254 5.7848Q3.50923 6.04048 3.15767 6.14915L3.15767 6.20028Q3.57315 6.22905 3.82564 6.55984Q4.07812 6.89063 4.07813 7.35085Q4.07813 7.7983 3.83842 8.12908Q3.59872 8.45987 3.18004 8.64045Q2.76136 8.82102 2.22443 8.82102Q1.70348 8.82102 1.29119 8.65004Q0.878906 8.47905 0.637607 8.17383Q0.396307 7.86861 0.383523 7.46591ZM6.58381 8.83381Q6.11719 8.83381 5.73686 8.65643Q5.35653 8.47905 5.13281 8.14187Q4.90909 7.80469 4.90909 7.32528Q4.90909 6.90341 5.07528 6.63974Q5.24148 6.37607 5.51953 6.22585Q5.79759 6.07564 6.13477 6.00053Q6.47195 5.92543 6.81392 5.88068Q7.26136 5.82315 7.54102 5.79279Q7.82067 5.76243 7.95011 5.68892Q8.07955 5.61541 8.07955 5.43324L8.07955 5.40767Q8.07955 4.93466 7.82227 4.67259Q7.56499 4.41051 7.04403 4.41051Q6.50391 4.41051 6.19709 4.64702Q5.89027 4.88352 5.76563 5.15199L5.04972 4.89631Q5.24148 4.44886 5.56268 4.19798Q5.88388 3.94709 6.2658 3.84641Q6.64773 3.74574 7.01847 3.74574Q7.25497 3.74574 7.56339 3.80167Q7.8718 3.8576 8.16104 4.03018Q8.45028 4.20277 8.64205 4.55114Q8.83381 4.8995 8.83381 5.48438L8.83381 8.71875L8.07955 8.71875L8.07955 8.05398L8.04119 8.05398Q7.96449 8.21378 7.78551 8.39595Q7.60653 8.57813 7.3093 8.70597Q7.01207 8.83381 6.58381 8.83381ZM6.69886 8.15625Q7.14631 8.15625 7.45472 7.98047Q7.76314 7.80469 7.92134 7.52663Q8.07955 7.24858 8.07955 6.94176L8.07955 6.25142Q8.0316 6.30895 7.87021 6.35529Q7.70881 6.40163 7.49947 6.43519Q7.29013 6.46875 7.09357 6.49272Q6.89702 6.51669 6.77557 6.53267Q6.48153 6.57102 6.22745 6.65572Q5.97337 6.74041 5.81836 6.9082Q5.66335 7.07599 5.66335 7.36364Q5.66335 7.75675 5.95579 7.9565Q6.24822 8.15625 6.69886 8.15625ZM12.7457 10.5597L12.7457 3.80966L13.4744 3.80966L13.4744 4.58949L13.5639 4.58949Q13.647 4.46165 13.7956 4.2619Q13.9442 4.06214 14.2239 3.90394Q14.5036 3.74574 14.983 3.74574Q15.603 3.74574 16.076 4.05575Q16.549 4.36577 16.8143 4.93466Q17.0795 5.50355 17.0795 6.27699Q17.0795 7.05682 16.8143 7.62731Q16.549 8.1978 16.0792 8.50941Q15.6094 8.82102 14.9957 8.82102Q14.5227 8.82102 14.2383 8.66282Q13.9538 8.50462 13.8004 8.30167Q13.647 8.09872 13.5639 7.96449L13.5 7.96449L13.5 10.5597L12.7457 10.5597ZM13.4872 6.2642Q13.4872 7.09837 13.85 7.62092Q14.2127 8.14347 14.8935 8.14347Q15.3665 8.14347 15.6845 7.89258Q16.0025 7.64169 16.1639 7.21502Q16.3253 6.78835 16.3253 6.2642Q16.3253 5.74645 16.1671 5.32937Q16.0089 4.91229 15.6909 4.66779Q15.3729 4.4233 14.8935 4.4233Q14.2031 4.4233 13.8452 4.93146Q13.4872 5.43963 13.4872 6.2642ZM20.2884 8.82102Q19.5788 8.82102 19.0659 8.50621Q18.5529 8.19141 18.2765 7.62411Q18 7.05682 18 6.30256Q18 5.5483 18.2765 4.97141Q18.5529 4.39453 19.0499 4.07013Q19.5469 3.74574 20.2116 3.74574Q20.5952 3.74574 20.9691 3.87358Q21.343 4.00142 21.6499 4.28746Q21.9567 4.57351 22.1388 5.04332Q22.321 5.51314 22.321 6.20028L22.321 6.51989L18.7575 6.51989Q18.783 7.30611 19.2033 7.72479Q19.6236 8.14347 20.2884 8.14347Q20.7326 8.14347 21.0522 7.9517Q21.3718 7.75994 21.5156 7.37642L22.2443 7.58097Q22.0717 8.13707 21.554 8.47905Q21.0362 8.82102 20.2884 8.82102ZM18.7575 5.8679L21.554 5.8679Q21.554 5.24467 21.1896 4.83398Q20.8253 4.4233 20.2116 4.4233Q19.7802 4.4233 19.4638 4.62464Q19.1474 4.82599 18.9652 5.15678Q18.783 5.48757 18.7575 5.8679ZM23.4716 8.71875L23.4716 3.80966L24.2259 3.80966L24.2259 5.9446L24.7244 5.9446L26.4886 3.80966L27.4602 3.80966L25.4787 6.17472L27.4858 8.71875L26.5142 8.71875L24.9034 6.64773L24.2259 6.64773L24.2259 8.71875L23.4716 8.71875ZM27.8693 8.71875L27.8693 8.01563L28.0483 8.01563Q28.3423 8.01563 28.5085 7.85103Q28.6747 7.68643 28.7546 7.24698Q28.8345 6.80753 28.8665 5.98295L28.956 3.80966L32.2287 3.80966L32.2287 8.71875L31.4744 8.71875L31.4744 4.51278L29.6719 4.51278L29.5952 6.2642Q29.56 7.0696 29.4226 7.61612Q29.2852 8.16264 28.9767 8.4407C28.7711 8.62607 28.4872 8.71875 28.125 8.71875L27.8693 8.71875ZM35.054 8.83381Q34.5874 8.83381 34.207 8.65643Q33.8267 8.47905 33.603 8.14187Q33.3793 7.80469 33.3793 7.32528Q33.3793 6.90341 33.5455 6.63974Q33.7116 6.37607 33.9897 6.22585Q34.2678 6.07564 34.6049 6.00053Q34.9421 5.92543 35.2841 5.88068Q35.7315 5.82315 36.0112 5.79279Q36.2908 5.76243 36.4203 5.68892Q36.5497 5.61541 36.5497 5.43324L36.5497 5.40767Q36.5497 4.93466 36.2924 4.67259Q36.0352 4.41051 35.5142 4.41051Q34.9741 4.41051 34.6673 4.64702Q34.3604 4.88352 34.2358 5.15199L33.5199 4.89631Q33.7116 4.44886 34.0328 4.19798Q34.354 3.94709 34.736 3.84641Q35.1179 3.74574 35.4886 3.74574Q35.7251 3.74574 36.0336 3.80167Q36.342 3.8576 36.6312 4.03018Q36.9205 4.20277 37.1122 4.55114Q37.304 4.8995 37.304 5.48438L37.304 8.71875L36.5497 8.71875L36.5497 8.05398L36.5114 8.05398Q36.4347 8.21378 36.2557 8.39595Q36.0767 8.57813 35.7795 8.70597Q35.4822 8.83381 35.054 8.83381ZM35.169 8.15625Q35.6165 8.15625 35.9249 7.98047Q36.2333 7.80469 36.3915 7.52663Q36.5497 7.24858 36.5497 6.94176L36.5497 6.25142Q36.5018 6.30895 36.3404 6.35529Q36.179 6.40163 35.9696 6.43519Q35.7603 6.46875 35.5637 6.49272Q35.3672 6.51669 35.2457 6.53267Q34.9517 6.57102 34.6976 6.65572Q34.4435 6.74041 34.2885 6.9082Q34.1335 7.07599 34.1335 7.36364Q34.1335 7.75675 34.426 7.9565Q34.7184 8.15625 35.169 8.15625ZM41.3693 7.69602L43.0824 3.80966L44.054 3.80966L44.054 8.71875L43.2997 8.71875L43.2997 4.96342L41.6761 8.71875L41.0625 8.71875L39.4389 4.89311L39.4389 8.71875L38.6847 8.71875L38.6847 3.80966L39.6818 3.80966L41.3693 7.69602ZM45.7415 10.5597Q45.5497 10.5597 45.3995 10.5293Q45.2493 10.4989 45.1918 10.4702L45.3835 9.8054Q45.6584 9.87571 45.8693 9.85653Q46.0803 9.83736 46.2448 9.66957Q46.4094 9.50178 46.5469 9.12784L46.6875 8.74432L44.8722 3.80966L45.6903 3.80966L47.0455 7.72159L47.0966 7.72159L48.4517 3.80966L49.2699 3.80966L47.1861 9.43466Q46.7674 10.5597 45.7415 10.5597Z" transform="translate(15.212 10.892)" fill="#FFFFFF" />
      </g>
    </g>
  </g>
</svg>