<?xml version="1.0" encoding="utf-8"?>
<svg width="44" height="44" viewBox="0 0 44 44" fill="none" xmlns="http://www.w3.org/2000/svg">
  <defs>
    <g id="group_1">
      <path d="M0 16C0 7.16344 7.16344 0 16 0C24.8366 0 32 7.16344 32 16C32 24.8366 24.8366 32 16 32C7.16344 32 0 24.8366 0 16Z" fill="#259FD8" fill-rule="evenodd" />
      <path d="M0 16C0 7.16344 7.16344 0 16 0C24.8366 0 32 7.16344 32 16C32 24.8366 24.8366 32 16 32C7.16344 32 0 24.8366 0 16Z" fill="#259FD8" fill-rule="evenodd" />
      <path d="M0 16C0 7.16344 7.16344 0 16 0C24.8366 0 32 7.16344 32 16C32 24.8366 24.8366 32 16 32C7.16344 32 0 24.8366 0 16Z" fill="#259FD8" fill-rule="evenodd" />
      <use p4:href="#group_1" clip-path="url(#clip_path_3)" filter="url(#filter_4)" xmlns:p4="http://www.w3.org/1999/xlink" />
      <path d="M0 15C0 6.71573 6.71573 0 15 0C23.2843 0 30 6.71573 30 15C30 23.2843 23.2843 30 15 30C6.71573 30 0 23.2843 0 15Z" fill="#004B6E" fill-rule="evenodd" transform="translate(1 1)" />
      <path d="M0 15C0 6.71573 6.71573 0 15 0C23.2843 0 30 6.71573 30 15C30 23.2843 23.2843 30 15 30C6.71573 30 0 23.2843 0 15Z" fill="#004B6E" fill-rule="evenodd" />
    </g>
    <path id="path_2" d="M0 16C0 7.16344 7.16344 0 16 0C24.8366 0 32 7.16344 32 16C32 24.8366 24.8366 32 16 32C7.16344 32 0 24.8366 0 16Z" />
    <clipPath id="clip_path_3">
      <use p4:href="#path_2" xmlns:p4="http://www.w3.org/1999/xlink" />
    </clipPath>
    <filter color-interpolation-filters="sRGB" x="-30" y="-30" width="32" height="32" id="filter_4">
      <feFlood flood-opacity="0" result="BackgroundImageFix_1" />
      <feBlend mode="normal" in="SourceGraphic" in2="BackgroundImageFix_1" result="Shape_2" />
      <feGaussianBlur stdDeviation="2" />
    </filter>
    <path id="path_5" d="M0 15C0 6.71573 6.71573 0 15 0C23.2843 0 30 6.71573 30 15C30 23.2843 23.2843 30 15 30C6.71573 30 0 23.2843 0 15Z" />
    <clipPath id="clip_path_6" transform="translate(1 1)">
      <use p4:href="#path_5" xmlns:p4="http://www.w3.org/1999/xlink" />
    </clipPath>
    <filter color-interpolation-filters="sRGB" x="-28" y="-28" width="30" height="30" id="filter_7">
      <feFlood flood-opacity="0" result="BackgroundImageFix_1" />
      <feBlend mode="normal" in="SourceGraphic" in2="BackgroundImageFix_1" result="Shape_2" />
      <feGaussianBlur stdDeviation="2" />
    </filter>
  </defs>
  <g transform="translate(6 6)">
    <path d="M0 16C0 7.16344 7.16344 0 16 0C24.8366 0 32 7.16344 32 16C32 24.8366 24.8366 32 16 32C7.16344 32 0 24.8366 0 16Z" fill="#259FD8" fill-rule="evenodd" />
    <use p3:href="#group_1" clip-path="url(#clip_path_3)" filter="url(#filter_4)" xmlns:p3="http://www.w3.org/1999/xlink" />
    <path d="M0 15C0 6.71573 6.71573 0 15 0C23.2843 0 30 6.71573 30 15C30 23.2843 23.2843 30 15 30C6.71573 30 0 23.2843 0 15Z" fill="#004B6E" fill-rule="evenodd" transform="translate(1 1)" />
    <use p3:href="#group_1" clip-path="url(#clip_path_6)" filter="url(#filter_7)" xmlns:p3="http://www.w3.org/1999/xlink" />
    <g transform="translate(6 6)">
      <path d="M7.50164 1.25C10.2762 1.25107 12.7178 3.08111 13.4974 5.74385C14.277 8.40658 13.2079 11.2645 10.8721 12.7618C8.53624 14.2591 5.49293 14.0372 3.39895 12.217C1.30497 10.3968 0.661616 7.41402 1.81914 4.8925C1.9466 4.58236 1.80661 4.2269 1.5019 4.08696C1.19718 3.94702 0.836334 4.07247 0.684142 4.37125C-0.704831 7.39723 0.0674341 10.9767 2.58049 13.1608C5.09354 15.3449 8.74569 15.6108 11.5486 13.8136C14.3514 12.0165 15.6339 8.58663 14.6979 5.39139C13.7618 2.19615 10.8312 0.000567436 7.50165 0C7.50165 0 7.50165 1.25 7.50165 1.25C7.50165 1.25 7.50164 1.25 7.50164 1.25Z" fill="#259FD8" fill-rule="evenodd" transform="translate(2.498 2.5)" />
      <path d="M3.57486 5.22739C3.57486 5.22739 3.57486 0.312387 3.57486 0.312387C3.57482 0.191175 3.50468 0.0809145 3.3949 0.0295022C3.28512 -0.0219102 3.15551 -0.00519788 3.06237 0.0723805C3.06237 0.0723805 0.11236 2.52989 0.11236 2.52989C0.0411611 2.58926 0 2.67718 0 2.76989C0 2.86259 0.0411611 2.95051 0.11236 3.00989C0.11236 3.00989 3.06236 5.46739 3.06236 5.46739C3.1555 5.54497 3.28511 5.56168 3.39489 5.51028C3.50467 5.45887 3.57481 5.34861 3.57486 5.22739C3.57486 5.22739 3.57486 5.22739 3.57486 5.22739Z" fill="#259FD8" transform="translate(6.425 0.355)" />
    </g>
  </g>
</svg>