<?xml version="1.0" encoding="utf-8"?>
<svg width="44" height="44" viewBox="0 0 44 44" fill="none" xmlns="http://www.w3.org/2000/svg">
  <defs>
    <g id="group_1">
      <path d="M0 16C0 7.16344 7.16344 0 16 0C24.8366 0 32 7.16344 32 16C32 24.8366 24.8366 32 16 32C7.16344 32 0 24.8366 0 16Z" fill="#259FD8" fill-rule="evenodd" />
      <path d="M0 16C0 7.16344 7.16344 0 16 0C24.8366 0 32 7.16344 32 16C32 24.8366 24.8366 32 16 32C7.16344 32 0 24.8366 0 16Z" fill="#259FD8" fill-rule="evenodd" />
      <path d="M0 16C0 7.16344 7.16344 0 16 0C24.8366 0 32 7.16344 32 16C32 24.8366 24.8366 32 16 32C7.16344 32 0 24.8366 0 16Z" fill="#259FD8" fill-rule="evenodd" />
      <use p4:href="#group_1" clip-path="url(#clip_path_3)" filter="url(#filter_4)" xmlns:p4="http://www.w3.org/1999/xlink" />
      <path d="M0 15C0 6.71573 6.71573 0 15 0C23.2843 0 30 6.71573 30 15C30 23.2843 23.2843 30 15 30C6.71573 30 0 23.2843 0 15Z" fill="#004B6E" fill-rule="evenodd" transform="translate(1 1)" />
      <path d="M0 15C0 6.71573 6.71573 0 15 0C23.2843 0 30 6.71573 30 15C30 23.2843 23.2843 30 15 30C6.71573 30 0 23.2843 0 15Z" fill="#004B6E" fill-rule="evenodd" />
    </g>
    <path id="path_2" d="M0 16C0 7.16344 7.16344 0 16 0C24.8366 0 32 7.16344 32 16C32 24.8366 24.8366 32 16 32C7.16344 32 0 24.8366 0 16Z" />
    <clipPath id="clip_path_3">
      <use p4:href="#path_2" xmlns:p4="http://www.w3.org/1999/xlink" />
    </clipPath>
    <filter color-interpolation-filters="sRGB" x="-30" y="-30" width="32" height="32" id="filter_4">
      <feFlood flood-opacity="0" result="BackgroundImageFix_1" />
      <feBlend mode="normal" in="SourceGraphic" in2="BackgroundImageFix_1" result="Shape_2" />
      <feGaussianBlur stdDeviation="2" />
    </filter>
    <path id="path_5" d="M0 15C0 6.71573 6.71573 0 15 0C23.2843 0 30 6.71573 30 15C30 23.2843 23.2843 30 15 30C6.71573 30 0 23.2843 0 15Z" />
    <clipPath id="clip_path_6" transform="translate(1 1)">
      <use p4:href="#path_5" xmlns:p4="http://www.w3.org/1999/xlink" />
    </clipPath>
    <filter color-interpolation-filters="sRGB" x="-28" y="-28" width="30" height="30" id="filter_7">
      <feFlood flood-opacity="0" result="BackgroundImageFix_1" />
      <feBlend mode="normal" in="SourceGraphic" in2="BackgroundImageFix_1" result="Shape_2" />
      <feGaussianBlur stdDeviation="2" />
    </filter>
  </defs>
  <g transform="translate(6 6)">
    <path d="M0 16C0 7.16344 7.16344 0 16 0C24.8366 0 32 7.16344 32 16C32 24.8366 24.8366 32 16 32C7.16344 32 0 24.8366 0 16Z" fill="#259FD8" fill-rule="evenodd" />
    <use p3:href="#group_1" clip-path="url(#clip_path_3)" filter="url(#filter_4)" xmlns:p3="http://www.w3.org/1999/xlink" />
    <path d="M0 15C0 6.71573 6.71573 0 15 0C23.2843 0 30 6.71573 30 15C30 23.2843 23.2843 30 15 30C6.71573 30 0 23.2843 0 15Z" fill="#004B6E" fill-rule="evenodd" transform="translate(1 1)" />
    <use p3:href="#group_1" clip-path="url(#clip_path_6)" filter="url(#filter_7)" xmlns:p3="http://www.w3.org/1999/xlink" />
    <g transform="translate(6 6)">
      <path d="M6.25 2.5C6.25 3.88125 4.85 5 3.125 5C1.4 5 0 3.88125 0 2.5C0 1.11875 1.4 0 3.125 0C4.85 0 6.25 1.11875 6.25 2.5Z" fill="#259FD8" transform="translate(5 13.75)" />
      <path d="M1.25 0C1.25 0 1.25 12.5 1.25 12.5L0 12.5L0 0C0 0 1.25 0 1.25 0Z" fill="#259FD8" fill-rule="evenodd" transform="translate(10 3.75)" />
      <path d="M0 1.99926C0.000290871 1.40378 0.420802 0.891094 1.00486 0.774284C1.00486 0.774284 4.75486 0.0242842 4.75486 0.0242842C5.12195 -0.0491326 5.50262 0.0458425 5.7922 0.283095C6.08177 0.520347 6.24977 0.874897 6.25 1.24926C6.25 1.24926 6.25 3.47426 6.25 3.47426L0 4.72426C0 4.72426 0 1.99926 0 1.99926Z" fill="#259FD8" transform="translate(10 1.526)" />
    </g>
  </g>
</svg>